<?xml version="1.0" encoding="UTF-8"?>
<svg width="1200pt" height="1200pt" version="1.1" viewBox="0 0 1200 1200" xmlns="http://www.w3.org/2000/svg">
 <path d="m426.9 300.42c-2.9805-54.797 10.008-106.55 29.457-151.94-76.789-50.078-156.33-68.055-156.33-68.055 0.003906 0-24.234 78.031-19.18 169.72 56.371 6.6602 105.25 23.598 146.05 50.277z"/>
 <path d="m253.17 599.92c-48.707-24.637-86.801-61.594-116.29-101.13-81.613 41.441-136.88 101.2-136.88 101.2s55.234 59.719 136.81 101.16c29.488-39.566 67.582-76.523 116.36-101.23z"/>
 <path d="m280.79 949.83c-5.0547 91.652 19.18 169.75 19.18 169.75s79.57-18.008 156.33-68.086c-19.414-45.426-32.438-97.145-29.426-152.01-40.805 26.711-89.711 43.68-146.08 50.344z"/>
 <path d="m773.06 899.52c3.0117 54.832-9.9766 106.58-29.426 151.98 76.789 50.078 156.33 68.086 156.33 68.086s24.27-78.098 19.18-169.75c-56.402-6.6641-105.27-23.602-146.08-50.312z"/>
 <path d="m1063.2 498.82c-29.492 39.566-67.586 76.488-116.29 101.2 48.672 24.637 86.801 61.594 116.26 101.13 81.609-41.441 136.88-101.2 136.88-101.2-0.003906-0.003906-55.27-59.688-136.85-101.13z"/>
 <path d="m919.18 250.17c5.0195-91.688-19.215-169.82-19.215-169.82s-79.535 18.043-156.29 68.121c19.449 45.426 32.469 97.145 29.457 152.01 40.773-26.68 89.648-43.648 146.05-50.312z"/>
 <path d="m418.33 594.83c1.5742-55.133 27.648-104.21 67.852-136.58-25.641-34.848-43.449-71.836-52.32-110.93-135.07-114.98-353.49-47.367-353.49-47.367s73.848 325.54 337.96 294.88z"/>
 <path d="m504.7 754.7c-44.355-27.414-76.02-73.309-84.289-126.94-12.387 1.5078-24.738 2.8125-36.688 2.8125h-0.035156c-31.531 0-60.254-4.7539-86.5-12.82-166.4 60.02-216.85 282.23-216.85 282.23s318.88 98.816 424.36-145.28z"/>
 <path d="m600 781.92c-23.199 0-45.324-4.5195-65.777-12.484-17.539 39.867-40.805 74.012-70.129 101.23-31.566 174.27 135.91 329.29 135.91 329.29s244.83-226.59 86.465-439.96c-25.742 14.027-55.199 21.926-86.465 21.926z"/>
 <path d="m781.7 605.14c-1.5391 55.168-27.648 104.24-67.887 136.61 25.609 34.879 43.418 71.805 52.289 110.9 135.11 115.02 353.56 47.332 353.56 47.332 0 0.003906-73.91-325.47-337.96-294.84z"/>
 <path d="m600 418.05c23.199 0 45.324 4.5508 65.746 12.453 17.539-39.867 40.84-74.012 70.164-101.23 31.531-174.27-135.91-329.26-135.91-329.26s-244.9 226.59-86.465 439.96c25.707-13.957 55.168-21.926 86.465-21.926z"/>
 <path d="m695.27 445.3c44.387 27.383 76.02 73.242 84.355 126.9 12.352-1.5078 24.703-2.8125 36.656-2.8125 31.566 0 60.289 4.7188 86.531 12.82 166.44-60.055 216.85-282.26 216.85-282.26s-318.88-98.781-424.39 145.35z"/>
 <path d="m748.46 599.98c0 81.992-66.469 148.46-148.46 148.46s-148.46-66.469-148.46-148.46 66.469-148.46 148.46-148.46 148.46 66.469 148.46 148.46z"/>
</svg>
