<?xml version="1.0" encoding="UTF-8"?>
<svg width="1200pt" height="1200pt" version="1.1" viewBox="0 0 1200 1200" xmlns="http://www.w3.org/2000/svg">
 <path d="m1005.6 189c-72.844-73.172-171.94-114.23-275.26-114-8.9531-0.046875-16.688 6.2812-18.422 15.094-1.7344 8.7656 3 17.578 11.297 20.953 81.234 32.578 154.69 81.938 215.58 144.79 101.02 101.02 89.766 276.71-25.172 391.64-90.938 88.031-264.24 106.22-366.74-0.28125v0.046875c-19.031-19.125-49.922-19.359-69.234-0.5625l-61.781 61.781c0.89062 0.70312 1.7344 1.4531 2.5312 2.25l76.359 76.359v0.046875c0.84375 0.75 1.5938 1.5938 2.25 2.4844l7.9688-7.9688v0.046875c107.06 76.031 245.26 92.906 367.5 45 122.26-47.953 212.06-154.31 238.92-282.84s-12.938-261.98-105.8-354.84z"/>
 <path d="m125.11 933.74c-124.31 106.97 39.562 271.03 146.63 146.63z"/>
 <path d="m391.87 737.26c-19.312-19.406-50.719-19.453-70.125-0.14062l-113.11 113.11 146.63 146.63 113.11-113.11v0.046875c19.359-19.406 19.266-50.812-0.14062-70.172z"/>
 <path d="m151.64 907.22 30.516-30.516 146.63 146.63-30.516 30.516z"/>
</svg>
