<?xml version="1.0" encoding="UTF-8"?>
<svg width="1200pt" height="1200pt" version="1.1" viewBox="0 0 1200 1200" xmlns="http://www.w3.org/2000/svg">
 <path d="m1083.6 609.61c-7.2188-90-44.391-181.22-112.78-240-43.219-37.219-98.391-58.781-154.78-62.391-55.219-2.3906-99.609 20.391-150 36-22.781 6-38.391 10.781-55.219 12-2.3906-7.2188-3.6094-15.609-6-25.219 8.3906-13.219 15.609-26.391 24-38.391 40.781 3.6094 124.78 3.6094 206.39-49.219 108-69.609 133.22-181.22 138-201.61-114-30-231.61 1.2188-301.22 81.609-55.219 63.609-62.391 136.78-63.609 166.78 1.2188 0 3.6094 1.2188 6 1.2188-4.7812 6-8.3906 13.219-13.219 19.219-3.6094-10.781-7.2188-22.781-10.781-36-20.391-60-34.781-90-45.609-108-2.3906-4.7812-4.7812-8.3906-7.2188-12-16.781-27.609-40.781-50.391-69.609-66-7.2188-4.7812-16.781-2.3906-22.781 3.6094-6 7.2188-12 13.219-18 20.391-7.1719 8.3906-4.7812 21.609 4.8281 27.609 31.219 19.219 50.391 38.391 64.781 52.781 37.219 40.781 54 84 69.609 121.22 6 15.609 12 30 15.609 42-14.391-2.3906-28.781-6-48-12-51.609-14.391-94.781-38.391-150-36-56.391 2.3906-111.61 25.219-154.78 62.391-68.391 58.781-105.61 148.78-112.78 240-7.2188 90 14.391 181.22 46.781 265.22 44.391 115.22 146.39 300 291.61 295.22 21.609-1.2188 40.781-7.2188 55.219-10.781 18-6 21.609-9.6094 37.219-14.391 21.609-7.2188 33.609-8.3906 52.781-8.3906 19.219 0 31.219 2.3906 52.781 8.3906 15.609 4.7812 19.219 8.3906 37.219 14.391 14.391 4.7812 32.391 10.781 55.219 10.781 145.22 4.7812 247.22-178.78 291.61-295.22 32.344-84.047 52.734-175.22 46.734-265.22z"/>
</svg>
