<?xml version="1.0" encoding="UTF-8"?>
<svg width="1200pt" height="1200pt" version="1.1" viewBox="0 0 1200 1200" xmlns="http://www.w3.org/2000/svg">
 <path d="m354.56 80.25c109.97 17.719 309.19 127.78 284.63 280.13-4.7812 29.766-18.047 60.891-42.047 92.906 20.531 66.844 24.797 136.03 24.375 207.47 10.172-25.031 22.078-47.391 35.812-67.547 0.09375-37.312 6.2344-70.875 17.109-100.73 59.344-162.94 272.26-226.82 405.32-178.31l13.875 5.0625-2.8125 14.438c-50.484 258.52-257.21 281.16-364.55 284.95-7.9219 0.28125 56.203-104.72 133.97-156.56-140.34 37.172-296.21 327.56-219.19 435.98 161.9 8.5312 323.16 66.984 415.18 196.55 9.2812 12.609-0.09375 27.938-13.594 27.938l-882.74 0.046874v-0.046874c-13.688 0-22.125-15.422-14.25-26.953 87.75-128.72 256.69-188.72 414-197.34 70.219-3.8438-195.32-332.26-255.24-369.89 78.562 94.312 135.84 174.79 123.84 175.69-41.953 3.1406-124.22-6.375-171.47-28.734-93.141-44.203-140.86-133.45-149.16-243.79l-1.2656-16.734c82.734-8.4844 177.37-8.1094 256.64 37.828 69.328 40.219 120.24 144.89 120.1 221.29 38.109 39.656 75 82.969 99.891 131.58 0.42188-21.938 1.1719-35.438 1.875-56.953 3-90.422-6.8906-413.16-107.67-499.6 51.844 95.062 59.438 200.48 56.156 198.98-80.25-36.516-231.61-114.7-198.56-353.02l2.4375-17.438z" fill-rule="evenodd"/>
</svg>
