<?xml version="1.0" encoding="UTF-8"?>
<svg width="1200pt" height="1200pt" version="1.1" viewBox="0 0 1200 1200" xmlns="http://www.w3.org/2000/svg">
 <path d="m823.87 170.16c-0.12109-0.046875-0.25391-0.085937-0.37109-0.13281-79.043-26.879-164.53-31.559-247-12.77-0.011718 0-0.035156 0-0.046875 0.011719-204.71 46.633-353.28 232.83-353.28 442.73s148.57 396.1 353.27 442.73h0.035157c33.254 7.5859 67.188 11.426 100.84 11.426 49.824 0 99.023-8.1367 146.22-24.191 0.12109-0.035157 0.23828-0.070313 0.33594-0.12109 183.98-62.723 307.6-235.46 307.6-429.84s-123.61-367.12-307.6-429.84zm-22.895 791.41c-0.12109 0.035157-0.23828 0.085938-0.35937 0.12109-44.52 15.18-91.414 21.793-138.45 19.895 149.47-66.742 247.56-215.52 247.56-381.59 0-166.08-98.102-314.86-247.57-381.59 47.027-1.8945 93.938 4.7148 138.46 19.895h0.011718c0.097656 0.035157 0.20312 0.070313 0.30078 0.10938 154.66 52.855 258.54 198.12 258.54 361.59 0 163.44-103.86 308.7-258.49 361.57z"/>
</svg>
