<?xml version="1.0" encoding="UTF-8"?>
<svg width="1200pt" height="1200pt" version="1.1" viewBox="0 0 1200 1200" xmlns="http://www.w3.org/2000/svg">
 <path d="m764.16 157.27c-0.011718 0-0.035156 0-0.046875-0.011719-82.512-18.793-168.02-14.113-247.05 12.781-0.10938 0.035156-0.21484 0.070312-0.3125 0.10938-184 62.73-307.61 235.47-307.61 429.85s123.61 367.12 307.6 429.84c0.10938 0.035156 0.21484 0.070312 0.3125 0.10938 47.195 16.055 96.383 24.203 146.24 24.203 33.648 0 67.586-3.8398 100.84-11.426h0.035156c204.7-46.629 353.27-232.82 353.27-442.73s-148.57-396.1-353.27-442.73zm-224.17 804.43c-0.12109-0.035156-0.25391-0.085937-0.35938-0.12109-154.62-52.871-258.49-198.14-258.49-361.58s103.87-308.71 258.49-361.59c0.12109-0.035156 0.25391-0.070312 0.35938-0.12109 44.496-15.168 91.402-21.781 138.43-19.883-149.46 66.746-247.55 215.52-247.55 381.59s98.09 314.84 247.56 381.59c-47.039 1.8945-93.945-4.7188-138.44-19.887z"/>
</svg>
