<?xml version="1.0" encoding="UTF-8"?>
<svg width="1200pt" height="1200pt" version="1.1" viewBox="0 0 1200 1200" xmlns="http://www.w3.org/2000/svg">
 <path d="m900 600c0 165.68-134.32 300-300 300s-300-134.32-300-300 134.32-300 300-300 300 134.32 300 300z"/>
 <path d="m600 237.06c4.9727 0 9.7422-1.9766 13.258-5.4922 3.5156-3.5156 5.4922-8.2852 5.4922-13.258v-180.81c0-6.6992-3.5742-12.887-9.375-16.238-5.8008-3.3477-12.949-3.3477-18.75 0-5.8008 3.3516-9.375 9.5391-9.375 16.238v180.81c0 4.9727 1.9766 9.7422 5.4922 13.258 3.5156 3.5156 8.2852 5.4922 13.258 5.4922z"/>
 <path d="m392.91 278.81c3.3516 5.8008 9.543 9.3789 16.242 9.3789 6.6992 0 12.891-3.5742 16.242-9.375 3.3477-5.8047 3.3477-12.953 0-18.754l-52.094-90.234c-3.3477-5.8008-9.5391-9.375-16.238-9.375-6.6992 0-12.891 3.5703-16.242 9.375-3.3516 5.8008-3.3516 12.949 0 18.75z"/>
 <path d="m103.48 334.99 156.58 90.398c5.8008 3.3477 12.949 3.3477 18.754 0 5.8008-3.3516 9.375-9.543 9.375-16.242 0-6.6992-3.5781-12.891-9.3789-16.242l-156.58-90.398c-5.8008-3.3477-12.949-3.3477-18.754 0.003907-5.8008 3.3477-9.375 9.5391-9.375 16.238 0.003907 6.7031 3.5781 12.891 9.3789 16.242z"/>
 <path d="m114.11 581.25c-6.6992 0-12.887 3.5742-16.238 9.375-3.3477 5.8008-3.3477 12.949 0 18.75 3.3516 5.8008 9.5391 9.375 16.238 9.375h104.2c6.6992 0 12.887-3.5742 16.238-9.375 3.3477-5.8008 3.3477-12.949 0-18.75-3.3516-5.8008-9.5391-9.375-16.238-9.375z"/>
 <path d="m112.88 900c3.2852 0 6.5117-0.86328 9.3555-2.5078l156.58-90.398c5.8008-3.3516 9.3789-9.543 9.3789-16.242 0-6.6992-3.5742-12.891-9.375-16.242-5.8047-3.3477-12.953-3.3477-18.754 0l-156.58 90.398c-4.8047 2.7734-8.1328 7.5273-9.0977 12.988-0.96094 5.4648 0.54688 11.07 4.1133 15.316s8.832 6.6953 14.379 6.6875z"/>
 <path d="m392.91 921.19-52.094 90.234h0.003906c-3.3516 5.8008-3.3516 12.949 0 18.754 3.3516 5.8008 9.543 9.375 16.242 9.375 6.6992 0 12.891-3.5781 16.238-9.3789l52.094-90.234c3.3477-5.8008 3.3477-12.949 0-18.754-3.3516-5.8008-9.543-9.375-16.242-9.375-6.6992 0-12.891 3.5781-16.242 9.3789z"/>
 <path d="m581.25 981.69v180.81c0 6.6992 3.5742 12.887 9.375 16.238 5.8008 3.3477 12.949 3.3477 18.75 0 5.8008-3.3516 9.375-9.5391 9.375-16.238v-180.81c0-6.6992-3.5742-12.887-9.375-16.238-5.8008-3.3477-12.949-3.3477-18.75 0-5.8008 3.3516-9.375 9.5391-9.375 16.238z"/>
 <path d="m781.48 914.32c-4.3086 2.4844-7.4531 6.582-8.7422 11.387-1.2852 4.8008-0.61328 9.9219 1.875 14.23l52.094 90.234c3.3477 5.8008 9.5391 9.375 16.238 9.375 6.6992 0 12.891-3.5703 16.242-9.375 3.3516-5.8008 3.3516-12.949 0-18.75l-52.09-90.234c-2.4883-4.3086-6.582-7.4531-11.387-8.7422-4.8047-1.2852-9.9258-0.61328-14.23 1.875z"/>
 <path d="m921.19 807.09 156.58 90.398c5.8047 3.3477 12.953 3.3477 18.754-0.003907 5.8008-3.3477 9.375-9.5391 9.375-16.238 0-6.7031-3.5742-12.891-9.3789-16.242l-156.58-90.398c-5.8008-3.3477-12.949-3.3477-18.754 0-5.8008 3.3516-9.375 9.543-9.375 16.242 0 6.6992 3.5781 12.891 9.3789 16.242z"/>
 <path d="m1085.9 581.25h-104.2c-6.6992 0-12.887 3.5742-16.238 9.375-3.3477 5.8008-3.3477 12.949 0 18.75 3.3516 5.8008 9.5391 9.375 16.238 9.375h104.2c6.6992 0 12.887-3.5742 16.238-9.375 3.3477-5.8008 3.3477-12.949 0-18.75-3.3516-5.8008-9.5391-9.375-16.238-9.375z"/>
 <path d="m930.58 427.9c3.2852 0 6.5117-0.86328 9.3594-2.5078l156.58-90.398c5.8008-3.3516 9.375-9.5391 9.3789-16.242 0-6.6992-3.5742-12.891-9.375-16.238-5.8047-3.3516-12.953-3.3516-18.754-0.003907l-156.58 90.398c-4.8047 2.7734-8.1328 7.5273-9.0977 12.992-0.96094 5.4609 0.54297 11.066 4.1133 15.312 3.5664 4.2461 8.832 6.6953 14.379 6.6875z"/>
 <path d="m781.48 285.68c4.3086 2.4844 9.4258 3.1562 14.227 1.8711 4.8047-1.2891 8.9023-4.4297 11.391-8.7383l52.094-90.234h-0.003906c3.3516-5.8008 3.3516-12.949 0-18.75-3.3516-5.8047-9.543-9.375-16.242-9.375-6.6992 0-12.891 3.5742-16.238 9.375l-52.094 90.234c-2.4883 4.3086-3.1602 9.4258-1.875 14.23 1.2891 4.8047 4.4336 8.9023 8.7422 11.387z"/>
</svg>
