<?xml version="1.0" encoding="UTF-8"?>
<svg width="1200pt" height="1200pt" version="1.1" viewBox="0 0 1200 1200" xmlns="http://www.w3.org/2000/svg">
 <path d="m1087.5 576.38c0 9.9453-3.9492 19.484-10.984 26.516-7.0312 7.0352-16.57 10.984-26.516 10.984h-193.12c-9.9453 0-19.484-3.9492-26.516-10.984-7.0352-7.0312-10.984-16.57-10.984-26.516 0-58.184-23.113-113.98-64.254-155.12s-96.938-64.254-155.12-64.254-113.98 23.113-155.12 64.254-64.254 96.938-64.254 155.12c0 9.9453-3.9492 19.484-10.984 26.516-7.0312 7.0352-16.57 10.984-26.516 10.984h-193.12c-13.398 0-25.777-7.1484-32.477-18.75-6.6992-11.602-6.6992-25.898 0-37.5 6.6992-11.602 19.078-18.75 32.477-18.75h157.88c8.8594-71.234 43.438-136.77 97.238-184.3 53.797-47.523 123.11-73.75 194.89-73.75s141.09 26.227 194.89 73.75c53.801 47.523 88.379 113.06 97.238 184.3h157.88c9.9453 0 19.484 3.9492 26.516 10.984 7.0352 7.0312 10.984 16.57 10.984 26.516zm-429 308.25-21 30.375v-225c0-13.398-7.1484-25.777-18.75-32.477-11.602-6.6992-25.898-6.6992-37.5 0-11.602 6.6992-18.75 19.078-18.75 32.477v225l-21-30.375c-5.5625-8.3398-14.234-14.105-24.078-16.008-9.8398-1.9062-20.035 0.21094-28.309 5.875-8.2695 5.668-13.93 14.406-15.711 24.273-1.7852 9.8633 0.45703 20.031 6.2227 28.234l89.625 130.12c7.0156 10.047 18.496 16.035 30.75 16.035s23.734-5.9883 30.75-16.035l89.625-130.12c5.7656-8.2031 8.0078-18.371 6.2227-28.234-1.7812-9.8672-7.4414-18.605-15.711-24.273-8.2734-5.6641-18.469-7.7812-28.309-5.875-9.8438 1.9023-18.516 7.668-24.078 16.008zm-58.5-640.12c9.9453 0 19.484-3.9492 26.516-10.984 7.0352-7.0312 10.984-16.57 10.984-26.516v-43.125c0-13.398-7.1484-25.777-18.75-32.477-11.602-6.6992-25.898-6.6992-37.5 0-11.602 6.6992-18.75 19.078-18.75 32.477v43.125c0 9.9453 3.9492 19.484 10.984 26.516 7.0312 7.0352 16.57 10.984 26.516 10.984zm179.62 52.875c8.3594 5.3555 18.5 7.1797 28.199 5.0703 9.7031-2.1094 18.172-7.9766 23.551-16.32l23.625-37.5c7.3008-11.254 8.043-25.547 1.9492-37.5-6.0938-11.949-18.102-19.738-31.5-20.438-13.398-0.69531-26.148 5.8086-33.449 17.062l-23.625 37.5c-5.4766 8.3867-7.3672 18.617-5.2539 28.41 2.1133 9.793 8.0547 18.332 16.504 23.715zm157.88 163.88c5.3047-0.023438 10.547-1.1758 15.375-3.375l39.375-17.625c12.258-5.5586 20.621-17.238 21.934-30.633 1.3164-13.398-4.6172-26.477-15.562-34.312-10.945-7.8359-25.238-9.2383-37.496-3.6797l-39.375 18c-10.492 4.7812-18.203 14.121-20.906 25.328-2.707 11.207-0.10547 23.035 7.0508 32.074 7.1602 9.0391 18.074 14.285 29.605 14.223zm-568.88-175.12c5.3789 8.3438 13.848 14.211 23.551 16.32 9.6992 2.1094 19.84 0.28516 28.199-5.0703 8.3438-5.3789 14.211-13.848 16.32-23.551 2.1094-9.6992 0.28516-19.84-5.0703-28.199l-23.625-37.5c-7.5039-11.254-20.438-17.648-33.938-16.781-13.496 0.87109-25.504 8.8789-31.5 21-5.9922 12.125-5.0664 26.527 2.4375 37.781zm-159.75 154.12 37.5 17.625c5.0586 2.3047 10.566 3.4609 16.125 3.375 11.531 0.0625 22.445-5.1836 29.605-14.223 7.1562-9.0391 9.7578-20.867 7.0508-32.074-2.7031-11.207-10.414-20.547-20.906-25.328l-37.5-18c-12.258-5.5586-26.551-4.1562-37.496 3.6797-10.945 7.8359-16.879 20.914-15.562 34.312 1.3125 13.395 9.6758 25.074 21.934 30.633z"/>
</svg>
