<?xml version="1.0" encoding="UTF-8"?>
<svg width="1200pt" height="1200pt" version="1.1" viewBox="0 0 1200 1200" xmlns="http://www.w3.org/2000/svg">
 <path d="m1143.8 75c0-10.352-8.3984-18.75-18.75-18.75h-1050c-10.352 0-18.75 8.3984-18.75 18.75v1050c0 10.352 8.3984 18.75 18.75 18.75h1050c10.352 0 18.75-8.3984 18.75-18.75zm-614.06 834.9c0 51.488 41.738 93.227 93.227 93.227h131.77c7.7617 0 14.699-4.7617 17.477-12 2.8125-7.1992 0.86328-15.414-4.875-20.625l-96.977-88.164v-451.09c0-10.352-8.3984-18.75-18.75-18.75h-206.25c-7.7617 0-14.699 4.7617-17.477 12-2.8125 7.1992-0.86328 15.414 4.875 20.625l96.977 88.164v376.61zm70.312-713.02c-51.75 0-93.75 42-93.75 93.75s42 93.75 93.75 93.75 93.75-42 93.75-93.75-42-93.75-93.75-93.75z" fill-rule="evenodd"/>
</svg>
