<?xml version="1.0" encoding="UTF-8"?>
<svg width="1200pt" height="1200pt" version="1.1" viewBox="0 0 1200 1200" xmlns="http://www.w3.org/2000/svg">
 <path d="m984 120h-768c-52.801 0-96 43.199-96 96v387.6l189.6-174c61.199-56.398 156-56.398 216 0l554.4 508.8v-722.4c0-52.801-43.199-96-96-96zm-146.4 370.8c-70.801 0-128.4-57.602-128.4-128.4 0-70.801 57.602-128.4 128.4-128.4 70.801 0 128.4 57.602 128.4 128.4 0 69.598-57.602 128.4-128.4 128.4z"/>
 <path d="m216 1080h768c40.801 0 75.602-25.199 88.801-61.199l-590.4-542.4c-36-33.602-93.602-33.602-129.6 0l-232.8 213.6v294c0 52.801 43.199 96 96 96z"/>
 <path d="m837.6 297.6c-36 0-64.801 28.801-64.801 64.801s28.801 64.801 64.801 64.801 64.801-28.801 64.801-64.801c-0.003906-36.004-28.801-64.801-64.801-64.801z"/>
</svg>
