<?xml version="1.0" encoding="UTF-8"?>
<svg width="1200pt" height="1200pt" version="1.1" viewBox="0 0 1200 1200" xmlns="http://www.w3.org/2000/svg">
 <path d="m295.74 435.74-104.44 151.03c-135.94-188.34 12.328-472.45 246.1-465.84 169.31-0.46875 305.81 142.55 297.56 311.63 0.375 0.65625-184.13 86.625-173.39 86.953-3.9375 4.7812-5.25 10.219-5.0625 15.938v122.39l-153.66-222.1c-25.922-37.594-81.047-37.688-107.11 0zm20.953 14.438-309.32 447.28c-19.406 28.641 11.203 36.516 30.234 45.891l298.97 135.79v-644.21c-8.1562 2.7188-14.859 8.0156-19.875 15.234zm242.63 256.5c-0.75-1.2188-176.44-255.1-177.37-256.5-5.0625-7.2656-11.719-12.516-19.875-15.234v644.21l298.87-135.84c19.125-9.2812 49.641-17.25 30.281-45.891zm343.82-4.125v283.64c4.7344-1.0312 9.4219-2.5312 13.359-4.4531l274.18-132.84c3.7969-1.875 6.0469-3.4688 8.1094-5.7188l0.046876-280.13c-7.2656 2.0156-296.48 147.52-295.69 139.5zm-321.14-139.5v131.72c10.031 19.828 148.31 200.86 142.45 219.24l139.82 67.734c3.9375 1.9219 8.6719 3.4688 13.406 4.4531l-0.046875-284.29c7.9688 12-291.84-138.28-295.64-138.84zm609.28-24.609c2.0156-0.9375 4.2656-2.3906 5.625-3.5625-1.4531-1.2656-3.5625-2.5781-6.2344-3.8906l-274.18-132.79c-7.1719-3.4688-16.219-5.5312-24.844-6.0469-8.2031-0.46875-15.75 0.42188-20.531 2.7188l-117.75 57c-1.875 0.65625-168.37 81.75-170.06 82.359 1.3594 1.4531 4.0312 3.0938 6.7969 4.4531 7.7812 1.5938 300.94 151.87 300.74 138.89 8.4375-0.42187 18.188-2.4844 25.688-6.0938z"/>
</svg>
