<?xml version="1.0" encoding="UTF-8"?>
<svg width="1200pt" height="1200pt" version="1.1" viewBox="0 0 1200 1200" xmlns="http://www.w3.org/2000/svg">
 <path d="m112.5 1125c9.9453 0 19.484-3.9492 26.516-10.984 7.0352-7.0312 10.984-16.57 10.984-26.516 0-48.793-2.7656-97.871-1.9141-146.58-1.5508-16.984 2.6797-33.996 12.012-48.273 9.3281-14.281 23.207-24.988 39.387-30.387 30.836-7.3164 62.617-9.8047 94.215-7.3711 58.621 1.3125 117.25-2.0508 175.34-10.062 52.926-8.5156 104.83-22.48 154.89-41.672 88.566-34.051 170.2-83.922 240.92-147.18 15.113-13.848 23.887-33.289 24.27-53.789 0.38672-20.496-7.6523-40.254-22.238-54.66l-76.27-76.129c-3.9648-3.957-6.1953-9.3281-6.1992-14.93-0.003906-5.6016 2.2188-10.973 6.1758-14.938 3.9609-3.9609 9.3359-6.1875 14.938-6.1875h183.96c14.691-0.0625 29.047-4.3906 41.324-12.465 12.277-8.0703 21.945-19.535 27.824-33 32.859-74.164 53.844-153.04 62.184-233.72 1.8438-20.938-5.2305-41.68-19.48-57.129s-34.355-24.168-55.375-24.02h-101.5c-160.32 1.5039-317.24 46.348-454.15 129.78-136.9 83.434-248.69 202.35-323.51 344.14-36.051 68.637-62.457 141.92-78.469 217.78-2.5469 12.352-4.7617 28.371-6.6172 44.758h-0.003906c-4.625 42.113-6.8672 84.453-6.7109 126.82v149.22c0 9.9453 3.9492 19.484 10.984 26.516 7.0312 7.0352 16.57 10.984 26.516 10.984z"/>
 <path d="m1087.5 1049.9c-4.6523-0.69922-9.2539-1.6836-13.789-2.9375-13.367-4.8086-25.324-12.887-34.77-23.496-24.816-30.668-62.156-48.488-101.61-48.488-39.449 0-76.789 17.82-101.61 48.488-18.422 18.383-27.43 26.512-48.559 26.512-21.059 0-30.066-8.1289-48.449-26.512h-0.003906c-24.754-30.664-62.047-48.488-101.46-48.488-39.41 0-76.703 17.824-101.46 48.488-18.383 18.383-27.395 26.512-48.449 26.512-27.777 0-42.672-22.328-61.516-39.258-21.973-20.625-50.348-33.098-80.402-35.344-23.227-0.30078-45.438 11.488-45.438 37.102 0.050781 11.344 5.1758 22.066 13.973 29.227 10.086 5.8906 21.418 9.3203 33.078 10.023 28.941 6.3203 42.945 31.875 65.23 48.551 21.66 16.203 48.023 24.875 75.07 24.699 39.316-0.43359 76.441-18.172 101.48-48.488 18.383-18.383 27.395-26.512 48.414-26.512 21.059 0 30.066 8.1289 48.449 26.512h-0.003906c24.789 30.66 62.098 48.48 101.52 48.488 39.426 0.003906 76.742-17.801 101.54-48.449 18.422-18.422 27.465-26.551 48.598-26.551 21.129 0 30.141 8.1289 48.559 26.512 25.086 30.316 62.242 48.055 101.59 48.488 10.344 0.078125 20.25-4.1523 27.352-11.676 7.0977-7.5234 10.746-17.66 10.07-27.984-0.67578-10.32-5.6172-19.895-13.637-26.426-6.9609-5.1094-15.188-8.2148-23.785-8.9922z"/>
</svg>
