<?xml version="1.0" encoding="UTF-8" standalone="no"?>
<!-- Created with Inkscape (http://www.inkscape.org/) -->

<svg
   width="127mm"
   height="127mm"
   viewBox="0 0 127 127"
   version="1.1"
   id="svg1"
   xml:space="preserve"
   inkscape:version="1.4.2 (f4327f4, 2025-05-13)"
   sodipodi:docname="drawing.svg"
   xmlns:inkscape="http://www.inkscape.org/namespaces/inkscape"
   xmlns:sodipodi="http://sodipodi.sourceforge.net/DTD/sodipodi-0.dtd"
   xmlns="http://www.w3.org/2000/svg"
   xmlns:svg="http://www.w3.org/2000/svg"><sodipodi:namedview
     id="namedview1"
     pagecolor="#000000"
     bordercolor="#000000"
     borderopacity="0.25"
     inkscape:showpageshadow="2"
     inkscape:pageopacity="0.0"
     inkscape:pagecheckerboard="0"
     inkscape:deskcolor="#d1d1d1"
     inkscape:document-units="mm"
     inkscape:zoom="1.1189113"
     inkscape:cx="293.58895"
     inkscape:cy="369.10878"
     inkscape:window-width="2560"
     inkscape:window-height="1560"
     inkscape:window-x="-12"
     inkscape:window-y="-12"
     inkscape:window-maximized="1"
     inkscape:current-layer="layer1" /><defs
     id="defs1" /><g
     inkscape:label="Layer 1"
     inkscape:groupmode="layer"
     id="layer1"
     transform="translate(-27.356752,-50.408028)"><path
       style="stroke-width:3.70416667;stroke-linecap:round;stroke-dasharray:none;stroke-opacity:1"
       stroke="currentColor"
       fill="none"
       d="M 85.168211,167.30417 C 75.48662,166.3162 64.946958,161.97806 57.326886,155.84465 55.153072,154.09494 51.120075,150.08817 49.28084,147.85092 40.420894,137.07369 36.056281,122.66312 37.431593,108.72846 39.952067,83.191007 60.139732,63.003342 85.677184,60.482868 c 13.711903,-1.353326 28.035536,2.896638 38.703516,11.483719 2.17924,1.754157 6.21088,5.759045 8.05196,7.998545 8.82703,10.737193 13.2563,25.312708 11.85394,39.008088 -0.65461,6.39292 -2.46238,12.85065 -5.15127,18.40146 -0.81387,1.68009 -1.41666,3.21912 -1.33955,3.42007 0.0791,0.20609 -0.0252,0.36536 -0.23923,0.36536 -0.20869,0 -1.0265,0.98227 -1.81737,2.18281 -2.83045,4.29669 -6.9262,8.84169 -10.94485,12.14536 -10.87759,8.94231 -25.387384,13.2689 -39.626119,11.81589 z m 4.101041,-1.4907 c 0,-0.11961 -0.606365,-1.09768 -1.347479,-2.17348 -8.88542,-12.89819 -23.324992,-21.1537 -39.096166,-22.35239 l -2.475937,-0.18818 1.358251,2.01284 c 7.132312,10.56963 18.114715,18.24433 30.527292,21.33302 4.462638,1.11046 11.034039,1.9253 11.034039,1.36819 z m 6.823449,-0.0563 c 15.453189,-1.64654 29.333069,-9.9302 37.892409,-22.61459 l 1.33777,-1.98249 h -0.81224 c -1.50825,0 -5.93474,0.56743 -8.4643,1.08504 -13.16795,2.69446 -25.00718,10.6327 -32.567508,21.83662 -1.531528,2.26963 -1.735555,2.13885 2.613869,1.67542 z m -3.973274,-3.09968 c 2.231841,-4.80718 3.905316,-10.43138 4.585819,-15.41198 0.443548,-3.24633 0.440748,-10.54329 -0.0053,-13.75834 -0.441729,-3.18406 -1.613986,-8.00314 -2.609219,-10.72635 -0.95359,-2.60926 -2.981265,-7.00073 -3.232451,-7.00073 -0.25363,0 -2.434123,4.71212 -3.279744,7.08763 -1.974568,5.54695 -2.882687,10.89955 -2.904866,17.12175 -0.03017,8.46262 1.417435,15.15035 4.903454,22.6533 0.600477,1.2924 1.176302,2.34982 1.279611,2.34982 0.10331,0 0.671514,-1.0418 1.262675,-2.3151 z m -6.806941,-6.8654 c -1.863739,-5.99898 -2.653825,-13.01993 -2.154828,-19.14848 0.416018,-5.10944 1.137455,-8.69973 2.828554,-14.07652 0.08114,-0.25797 -1.022221,0.73702 -2.451906,2.2111 -7.060516,7.27973 -15.909997,12.37324 -25.548101,14.70476 -1.707707,0.4131 -3.106691,0.81982 -3.108854,0.9038 -0.0022,0.084 0.788849,0.29878 1.757804,0.47732 2.896079,0.53362 8.73997,2.58534 12.154262,4.26721 5.624975,2.77084 10.200666,6.12751 14.659002,10.75364 1.382448,1.43448 2.550655,2.59025 2.596016,2.56838 0.04536,-0.0219 -0.284016,-1.21941 -0.731949,-2.66121 z M 102.90257,151.498 c 2.99823,-2.41723 6.37713,-4.55997 10.04689,-6.37125 3.44242,-1.69908 9.25229,-3.74521 12.10469,-4.26306 0.98226,-0.17833 1.78594,-0.39403 1.78594,-0.47934 0,-0.0853 -0.98227,-0.37515 -2.18282,-0.64409 -9.93927,-2.22653 -19.60648,-7.75041 -26.878897,-15.3587 -1.213578,-1.26963 -2.138342,-2.09174 -2.055031,-1.82692 1.680794,5.34277 2.404239,8.91784 2.823637,13.95366 0.56851,6.82623 -0.500367,14.91179 -2.845054,21.52153 -0.08984,0.25326 1.018941,-0.73016 2.463953,-2.18536 1.445012,-1.45521 3.576522,-3.41112 4.736692,-4.34647 z M 53.153627,138.90054 c 12.159229,-1.87097 23.810051,-8.42706 31.634516,-17.80123 2.469656,-2.95879 4.642622,-6.05963 4.409646,-6.29261 -0.08951,-0.0895 -1.561833,-0.0261 -3.271821,0.14084 -15.311269,1.49506 -29.253954,9.67302 -37.907153,22.23411 -0.741114,1.07581 -1.347479,2.06404 -1.347479,2.19606 0,0.27884 3.008223,0.0574 6.482291,-0.47717 z m 81.888543,0.4546 c 0,-0.11961 -0.60637,-1.09768 -1.34748,-2.17349 -8.66721,-12.58142 -22.44732,-20.66522 -37.889623,-22.2271 -1.716812,-0.17365 -3.195868,-0.24133 -3.286791,-0.15041 -0.235694,0.2357 1.928487,3.32567 4.419387,6.30991 7.280057,8.72194 18.101107,15.12871 29.373257,17.39091 4.05979,0.81475 8.73125,1.26962 8.73125,0.85018 z m -88.824196,-2.89138 c 5.525483,-11.88889 6.59367,-24.07121 3.205438,-36.556973 -1.030077,-3.79587 -3.852835,-10.605009 -4.396352,-10.605009 -0.638226,0 -3.659221,7.670023 -4.71574,11.972822 -2.92144,11.8979 -1.735429,23.6972 3.537053,35.18916 0.517425,1.12778 1.047834,2.05052 1.178687,2.05052 0.130852,0 0.666763,-0.92274 1.190914,-2.05052 z m 91.619826,0.0114 c 6.82223,-14.37649 6.81094,-30.78154 -0.0311,-45.199805 -0.51509,-1.085457 -1.0329,-1.973557 -1.15069,-1.973557 -0.25035,0 -2.0539,3.812931 -3.06619,6.482291 -0.98679,2.602132 -2.40183,8.267481 -2.80862,11.244791 -0.18889,1.38245 -0.34343,4.47807 -0.34343,6.87917 0,2.40109 0.15454,5.49672 0.34343,6.87916 0.40679,2.97732 1.82183,8.64266 2.80862,11.2448 1.01229,2.66936 2.81584,6.48229 3.06619,6.48229 0.11779,0 0.6496,-0.91761 1.18181,-2.03914 z m -6.7524,-7.14136 c -2.99025,-9.62499 -3.03277,-20.77765 -0.11605,-30.437878 0.4938,-1.635471 0.89782,-3.017195 0.89782,-3.070498 0,-0.0533 -1.22039,1.144313 -2.71198,2.661367 -4.521,4.598179 -9.15363,7.969119 -14.683,10.684089 -3.45962,1.69871 -9.17474,3.70705 -12.06412,4.23944 -0.96895,0.17854 -1.76173,0.40251 -1.76173,0.49773 0,0.0952 0.79278,0.31919 1.76173,0.49773 2.48169,0.45727 8.22935,2.40311 11.20285,3.79266 5.63014,2.63105 10.92912,6.41939 15.34583,10.97106 1.52797,1.57466 2.81524,2.84563 2.8606,2.82438 0.0454,-0.0213 -0.28401,-1.21828 -0.73195,-2.66008 z m -72.469647,-5.43916 c 2.72673,-2.03237 5.887098,-3.9395 9.15658,-5.52556 3.028736,-1.46928 8.844944,-3.46799 11.5331,-3.9633 0.968955,-0.17854 1.761736,-0.40252 1.761736,-0.49773 0,-0.0952 -0.792781,-0.31919 -1.761736,-0.49773 -2.679139,-0.49365 -8.360358,-2.44711 -11.467431,-3.94302 -5.836625,-2.81006 -10.584948,-6.21007 -15.147395,-10.846211 -1.564349,-1.589616 -2.844271,-2.803911 -2.844271,-2.698433 0,0.105478 0.183942,0.712763 0.40876,1.349522 2.776199,7.863112 3.364709,18.335192 1.544536,27.483782 -0.337822,1.69797 -1.322093,5.28078 -1.872376,6.81558 -0.0908,0.25326 1.371891,-1.03125 3.25043,-2.85447 1.878539,-1.82321 4.325669,-3.9933 5.438067,-4.82243 z M 89.269252,112.8775 c 0,-0.37244 -2.789329,-4.17491 -4.82998,-6.58432 C 76.020673,96.353267 63.373165,89.839396 49.889673,88.499028 48.24002,88.335039 46.825719,88.26545 46.746782,88.344387 c -0.197761,0.197761 1.330223,2.538574 3.21379,4.923404 7.710428,9.762359 19.069771,16.654549 31.173194,18.914089 4.094894,0.76446 8.135486,1.10995 8.135486,0.69562 z m 6.823449,-0.0431 c 14.152609,-1.54163 26.985009,-8.58271 35.660229,-19.566619 1.88357,-2.38483 3.41155,-4.725643 3.21379,-4.923404 -0.23142,-0.231425 -5.91366,0.404701 -8.78809,0.983827 -4.08898,0.823824 -8.88594,2.53033 -13.09688,4.659178 -7.60504,3.844744 -13.878709,9.214208 -18.839356,16.124088 -0.830032,1.15619 -1.586911,2.3048 -1.681953,2.55248 -0.209339,0.54553 -0.0026,0.5555 3.53226,0.17045 z m -3.909855,-3.22586 c 2.253029,-4.84429 3.791257,-10.047526 4.517121,-15.279689 0.446027,-3.215046 0.448827,-10.51201 0.0053,-13.758333 -0.406792,-2.977314 -1.821833,-8.642661 -2.808625,-11.244792 -0.965534,-2.546077 -2.811421,-6.482292 -3.039869,-6.482292 -0.103309,0 -0.679134,1.057421 -1.279611,2.349825 -3.414338,7.348669 -4.904585,14.095661 -4.915905,22.256425 -0.01118,8.060095 1.490539,14.893836 4.869422,22.158856 0.626042,1.34607 1.222785,2.44739 1.326094,2.44739 0.10331,0 0.700052,-1.10132 1.326094,-2.44739 z m -6.888827,-6.65826 C 82.28562,92.930128 82.282683,81.685226 85.285962,72.1059 c 0.430558,-1.373318 0.754146,-2.525628 0.719084,-2.56069 -0.03506,-0.03506 -1.249725,1.134581 -2.699251,2.599206 -3.115981,3.148441 -5.724698,5.302941 -8.985501,7.420994 -4.847991,3.14901 -10.525943,5.637562 -15.875,6.957749 -1.600729,0.395071 -3.08901,0.774339 -3.307292,0.842817 -0.218281,0.06848 1.150938,0.516978 3.042709,0.996668 9.772771,2.478048 18.517443,7.549457 25.4,14.730546 1.309687,1.3665 2.406542,2.47817 2.437455,2.47039 0.03091,-0.008 -0.294954,-1.18376 -0.724147,-2.61329 z M 102.763,98.756402 c 5.99251,-4.854881 13.19448,-8.462065 20.76979,-10.402778 1.89177,-0.484652 3.38006,-0.890707 3.3073,-0.902346 -0.0728,-0.01164 -1.70603,-0.428964 -3.62949,-0.927391 -9.5424,-2.472726 -17.83937,-7.299064 -24.933934,-14.504026 -1.376079,-1.397493 -2.531211,-2.511647 -2.566959,-2.475899 -0.03575,0.03575 0.287278,1.18862 0.717836,2.561938 1.825165,5.821588 2.624024,12.978211 2.128304,19.066526 -0.415165,5.098957 -1.136175,8.692154 -2.817775,14.042554 -0.07521,0.2393 1.028149,-0.75427 2.451906,-2.20792 1.423757,-1.45365 3.481622,-3.366446 4.573022,-4.250658 z M 50.772377,86.379761 C 62.267741,85.067458 72.881779,80.091339 81.134143,72.145427 84.603324,68.805074 89.654947,62.347194 89.174531,61.866778 88.861362,61.553609 81.434999,62.567835 78.19644,63.366067 65.892778,66.398644 54.84976,74.134069 47.686483,84.737715 l -1.295856,1.918229 1.00025,-0.0022 c 0.550138,-0.0012 2.071813,-0.124499 3.3815,-0.274012 z M 133.98511,84.67345 c -7.5245,-11.150821 -19.40409,-19.084207 -32.67732,-21.822458 -2.705553,-0.558153 -8.546064,-1.206966 -8.777906,-0.975124 -0.229439,0.229439 1.375105,2.630897 3.651791,5.465493 4.820455,6.001726 11.657045,11.350127 18.620675,14.567336 5.70693,2.636606 13.57918,4.576706 19.1234,4.712922 l 1.39713,0.03433 z"
       id="path1" /></g></svg>
