<?xml version="1.0" encoding="UTF-8"?>
<svg width="1200pt" height="1200pt" version="1.1" viewBox="0 0 1200 1200" xmlns="http://www.w3.org/2000/svg">
 <path d="m700.87 157.27c-0.023438 0-0.035156 0-0.058594-0.011719-82.645-18.828-168.21-14.102-247.38 12.887-183.97 62.734-307.59 235.48-307.59 429.85s123.61 367.12 307.61 429.84c47.281 16.129 96.574 24.301 146.53 24.301 33.648 0 67.559-3.8398 100.82-11.426h0.058594c204.71-46.617 353.28-232.81 353.28-442.71s-148.57-396.1-353.28-442.73zm-7.7617 813.27c-2.6875-0.67188-5.3867-1.3203-8.0273-2.0391-1.8594-0.50391-3.7305-0.98437-5.5664-1.5-5.832-1.668-11.566-3.4219-17.09-5.3047h-0.023437c-154.81-52.789-258.82-198.14-258.82-361.7s104-308.91 258.85-361.7c5.5312-1.8828 11.27-3.6367 17.113-5.3164 1.8125-0.51562 3.6602-0.99609 5.4961-1.4883 2.6523-0.71875 5.3633-1.3789 8.0625-2.0508 167.99 42.285 289.04 196.76 289.04 370.56s-121.05 328.27-289.04 370.55z"/>
</svg>
