<?xml version="1.0" encoding="UTF-8"?>
<svg width="1200pt" height="1200pt" version="1.1" viewBox="0 0 1200 1200" xmlns="http://www.w3.org/2000/svg">
 <path d="m767.06 170.16c-79.129-26.988-164.71-31.715-247.36-12.887-0.023437 0-0.035156 0-0.058593 0.011718-204.7 46.617-353.27 232.81-353.27 442.71s148.57 396.1 353.27 442.73h0.058593c33.254 7.5859 67.176 11.426 100.82 11.426 49.801 0 98.953-8.125 146.1-24.156 0.15625-0.046875 0.30078-0.097656 0.46875-0.15625 183.97-62.723 307.58-235.46 307.58-429.84s-123.61-367.12-307.62-429.84zm-528.68 429.84c0-173.8 121.05-328.27 289.04-370.55 2.6992 0.67188 5.4102 1.332 8.0625 2.0508 1.8359 0.49219 3.6836 0.97266 5.4961 1.4883 5.8438 1.668 11.594 3.4219 17.113 5.3164 0.15625 0.046875 0.3125 0.10938 0.48047 0.16797 154.56 52.895 258.38 198.12 258.38 361.52 0 30.672-3.6602 60.695-10.621 89.594-30.168 125.22-122.43 229.21-248.23 272.11-5.5078 1.8828-11.242 3.6367-17.102 5.3047-1.7891 0.51563-3.6367 0.98438-5.4492 1.4766-2.6641 0.71875-5.3984 1.3906-8.125 2.0625-167.98-42.273-289.04-196.75-289.04-370.55z"/>
</svg>
