<?xml version="1.0" encoding="UTF-8"?>
<svg width="1200pt" height="1200pt" version="1.1" viewBox="0 0 1200 1200" xmlns="http://www.w3.org/2000/svg">
 <path d="m630.6 328.32c-8.3594-20.91-24.766-37.59-45.535-46.297-20.77-8.7031-44.164-8.7031-64.934 0-20.77 8.707-37.176 25.387-45.531 46.297l-55.68 137.76-137.76 56.16c-20.91 8.3594-37.59 24.766-46.297 45.535-8.7031 20.77-8.7031 44.164 0 64.934 8.707 20.77 25.387 37.176 46.297 45.531l137.76 56.039 56.039 137.76c8.3555 20.914 24.762 37.59 45.531 46.297 20.77 8.7031 44.164 8.7031 64.934 0 20.77-8.707 37.176-25.383 45.535-46.297l56.039-137.76 137.76-56.039c20.91-8.3555 37.59-24.762 46.293-45.531 8.7031-20.77 8.7031-44.164 0-64.934-8.7031-20.77-25.383-37.176-46.293-45.535l-138-56.16zm174.24 271.68c0.023437 4.8867-2.918 9.3008-7.4414 11.16l-137.4 56.039c-18.004 7.3164-32.285 21.598-39.602 39.602l-56.398 137.76c-1.8477 4.5039-6.2344 7.4414-11.102 7.4414-4.8633 0-9.25-2.9375-11.098-7.4414l-56.16-137.88c-7.3164-18.004-21.598-32.285-39.602-39.602l-137.76-55.918c-4.5039-1.8477-7.4414-6.2344-7.4414-11.102 0-4.8633 2.9375-9.25 7.4414-11.098l137.88-56.16c18.004-7.3164 32.285-21.598 39.602-39.602l56.039-137.76v0.003906c1.8477-4.5039 6.2344-7.4414 11.098-7.4414 4.8672 0 9.2539 2.9375 11.102 7.4414l56.039 137.76v-0.003906c7.3984 18.074 21.82 32.367 39.961 39.602l137.76 56.039c4.3789 1.9688 7.1641 6.3594 7.0781 11.16z"/>
 <path d="m952.2 875.28-34.32-17.16-17.16-34.32c-2.3984-4.793-7.3008-7.8164-12.66-7.8164s-10.258 3.0234-12.66 7.8164l-17.16 34.32-34.32 17.16h0.003906c-4.793 2.3984-7.8203 7.3008-7.8203 12.66s3.0273 10.258 7.8203 12.66l34.32 17.16 17.16 34.32-0.003906-0.003906c2.4023 4.793 7.3008 7.8203 12.66 7.8203s10.262-3.0273 12.66-7.8203l17.16-34.32 34.32-17.16v0.003906c4.793-2.4023 7.8164-7.3008 7.8164-12.66s-3.0234-10.262-7.8164-12.66z"/>
 <path d="m952.2 287.28-34.32-17.16-17.16-34.32c-2.3984-4.793-7.3008-7.8164-12.66-7.8164s-10.258 3.0234-12.66 7.8164l-17.16 34.32-34.32 17.16h0.003906c-4.793 2.3984-7.8203 7.3008-7.8203 12.66s3.0273 10.258 7.8203 12.66l34.32 17.16 17.16 34.32-0.003906-0.003906c2.4023 4.793 7.3008 7.8203 12.66 7.8203s10.262-3.0273 12.66-7.8203l17.16-34.32 34.32-17.16v0.003906c4.793-2.4023 7.8164-7.3008 7.8164-12.66s-3.0234-10.262-7.8164-12.66z"/>
</svg>
