<?xml version="1.0" encoding="UTF-8"?>
<svg width="1200pt" height="1200pt" version="1.1" viewBox="0 0 1200 1200" xmlns="http://www.w3.org/2000/svg">
 <path d="m1016.5 791.11c-4.6875-12.703-14.672-22.641-27.469-27.141-12.844-4.5469-30.422-10.828-48.562-17.391l65.109-26.297c17.391-7.0312 19.078-30.984 2.8125-40.359l-27.75-16.031c-12-6.9375-26.531-7.9219-39.328-2.7656l-92.203 37.219c-24.938-14.391-51.234-29.578-69.234-39.984-13.922-8.0625-22.406-22.828-22.406-38.906v-38.953c0-16.078 8.5781-30.938 22.5-38.953l69.188-39.938 92.203 37.219c12.844 5.2031 27.375 4.1719 39.328-2.7656l27.75-16.031c16.219-9.375 14.578-33.328-2.8125-40.359l-65.109-26.297c18.141-6.5625 35.672-12.891 48.562-17.391 12.797-4.5 22.781-14.438 27.469-27.141l13.781-37.312c4.875-13.219-3.4219-27.609-17.344-30l-39.234-6.7031c-13.219-2.25-26.531 1.3125-36.703 9.75l-39.844 33.703 9.7969-69.422c2.625-18.562-17.297-31.969-33.516-22.641l-27.75 16.031c-12 6.9375-20.109 18.984-22.078 32.719l-13.875 98.438-69.188 39.938c-13.922 8.0625-31.078 8.0625-45 0l-33.75-19.5c-13.922-8.0625-22.5-22.875-22.5-38.953v-79.875l78.328-61.219c10.922-8.5312 17.297-21.609 17.297-35.438v-32.062c0-18.75-21.609-29.25-36.375-17.719l-55.312 43.219c3.375-18.984 6.7031-37.312 9.1875-50.719 2.4844-13.312-1.125-26.906-9.75-37.359l-25.406-30.609c-9-10.828-25.641-10.828-34.641 0l-25.406 30.609c-8.5781 10.359-12.141 23.625-9.8906 36.656l9.2344 51.328-55.266-43.172c-14.766-11.531-36.375-1.0312-36.375 17.719v32.062c0 13.828 6.375 26.906 17.297 35.438l78.328 61.219v79.875c0 16.078-8.5781 30.938-22.5 38.953l-33.75 19.5c-13.922 8.0625-31.078 8.0625-45 0l-69.188-39.938-13.875-98.438c-1.9219-13.734-10.078-25.781-22.078-32.719l-27.75-16.031c-16.219-9.375-36.141 4.0781-33.516 22.641l9.7969 69.516c-14.766-12.422-28.969-24.469-39.328-33.328-10.312-8.8125-23.859-12.516-37.219-10.219l-39.234 6.7031c-13.875 2.3906-22.219 16.781-17.344 30l13.781 37.312c4.6875 12.562 14.391 22.312 26.812 26.906l49.125 17.672-65.016 26.25c-17.391 7.0312-19.078 30.984-2.8125 40.359l27.75 16.031c12 6.9375 26.531 7.9219 39.328 2.7656l92.203-37.219 69.188 39.938c13.922 8.0625 22.5 22.875 22.5 38.953v38.953c0 16.078-8.5781 30.938-22.5 38.953l-69.188 39.938-92.203-37.219c-12.844-5.2031-27.375-4.1719-39.328 2.7656l-27.75 16.031c-16.219 9.375-14.578 33.328 2.8125 40.359l65.016 26.25-49.125 17.672c-12.422 4.5938-22.125 14.344-26.812 26.906l-13.781 37.312c-4.875 13.219 3.4219 27.609 17.344 30l39.234 6.7031c13.359 2.2969 26.953-1.4062 37.219-10.219 10.359-8.8594 24.609-20.906 39.328-33.328l-9.7969 69.516c-2.625 18.562 17.297 31.969 33.516 22.641l27.75-16.031c12-6.9375 20.109-18.984 22.078-32.719l13.875-98.438 69.188-39.938c13.922-8.0625 31.078-8.0625 45 0l33.75 19.5c13.922 8.0625 22.5 22.875 22.5 38.953v79.875l-78.328 61.219c-10.922 8.5312-17.297 21.609-17.297 35.438v32.062c0 18.75 21.609 29.25 36.375 17.719l55.266-43.172-9.2344 51.328c-2.25 13.078 1.3594 26.344 9.8906 36.656l25.406 30.609c9 10.828 25.641 10.828 34.641 0l25.406-30.609c8.6719-10.406 12.234-24.047 9.75-37.359-2.4844-13.406-5.8125-31.734-9.1875-50.719l55.312 43.219c14.766 11.531 36.375 1.0312 36.375-17.719v-32.062c0-13.828-6.375-26.906-17.297-35.438l-78.328-61.219v-79.969c0-16.078 8.5781-30.844 22.5-38.859l33.75-19.5c13.922-8.0625 31.078-8.0625 45 0l69.188 39.938 13.875 98.438c1.9219 13.734 10.078 25.781 22.078 32.719l27.75 16.031c16.219 9.375 36.141-4.0781 33.516-22.641l-9.7969-69.422 39.844 33.703c10.172 8.4844 23.484 12 36.703 9.75l39.234-6.7031c13.875-2.3906 22.219-16.781 17.344-30l-13.781-37.312zm-349.03-171.61c0 12.047-6.4219 23.203-16.875 29.25l-33.75 19.5c-10.453 6.0469-23.297 6.0469-33.75 0l-33.75-19.5c-10.453-6.0469-16.875-17.156-16.875-29.25v-38.953c0-12.047 6.4219-23.203 16.875-29.25l33.75-19.5c10.453-6.0469 23.297-6.0469 33.75 0l33.75 19.5c10.453 6.0469 16.875 17.156 16.875 29.25z"/>
</svg>
