<?xml version="1.0" encoding="UTF-8"?>
<svg width="1200pt" height="1200pt" version="1.1" viewBox="0 0 1200 1200" xmlns="http://www.w3.org/2000/svg">
 <path d="m600 321.24c153.94 0 278.76 124.78 278.76 278.76 0 153.94-124.78 278.76-278.76 278.76-153.94 0-278.76-124.78-278.76-278.76 0-153.94 124.78-278.76 278.76-278.76zm291.94 447.37c-4.7812 8.2969-1.9219 18.938 6.375 23.766l145.45 84c2.625 1.5469 5.625 2.2969 8.625 2.2969 6.2344 0 12-3.375 15.141-8.7656 4.7812-8.2969 1.9219-18.938-6.375-23.766l-145.45-84c-8.2969-4.7812-18.938-1.9219-23.766 6.375zm-454.18-484.45-48.375-83.859v-0.23438c-4.9219-8.2969-15.469-11.062-23.859-6.2344-8.2969 4.9219-11.062 15.469-6.2344 23.859l48.375 83.859c4.7812 8.2969 15.469 11.156 23.766 6.375s11.156-15.469 6.375-23.766zm454.18 147.37c4.9219 8.2969 15.469 11.062 23.859 6.2344l145.45-84h0.23438c8.2969-4.9219 11.062-15.469 6.2344-23.859-4.9219-8.2969-15.469-11.062-23.859-6.2344l-145.45 84h-0.23438c-8.2969 4.9219-11.062 15.469-6.2344 23.859zm176.9 168.47c0-9.6094-7.7812-17.391-17.391-17.391h-96.844c-9.6094 0-17.391 7.7812-17.391 17.391s7.7812 17.391 17.391 17.391h96.844c9.6094 0 17.391-7.7812 17.391-17.391zm-451.45-354.61v-168c0-9.6094-7.7812-17.391-17.391-17.391s-17.391 7.7812-17.391 17.391v168c0 9.6094 7.7812 17.391 17.391 17.391s17.391-7.7812 17.391-17.391zm223.55-27.844c4.7812-8.3906 1.7812-18.938-6.4688-23.766-8.2969-4.7812-18.938-1.7812-23.766 6.4688l-48.375 83.859c-4.7812 8.2969-1.9219 18.938 6.375 23.766 8.2969 4.7812 18.938 1.9219 23.766-6.375l48.375-83.859v-0.23437zm-708.56 652.6c4.9219 8.2969 15.469 11.062 23.859 6.2344l145.45-84c8.2969-4.7812 11.062-15.375 6.375-23.625-4.7812-8.3906-15.375-11.297-23.766-6.4688l-145.45 84h-0.23438c-8.2969 4.9219-11.062 15.469-6.2344 23.859zm175.69-438.74c4.7812-8.2969 1.9219-18.938-6.375-23.766l-145.45-84c-8.2969-4.7812-18.938-1.9219-23.766 6.375-4.7812 8.2969-1.9219 18.938 6.375 23.766l145.45 84c2.625 1.5469 5.625 2.2969 8.7656 2.2969 6.2344 0 12-3.375 15.141-8.7656zm454.18 484.45 48.375 83.859c4.7812 8.2969 15.375 11.062 23.625 6.375 8.3906-4.7812 11.297-15.375 6.4688-23.766l-48.375-83.859c-4.7812-8.2969-15.375-11.062-23.625-6.375-8.3906 4.7812-11.297 15.375-6.4688 23.766zm-631.08-315.84c0 9.6094 7.7812 17.391 17.391 17.391h96.844c9.6094 0 17.391-7.7812 17.391-17.391 0-9.6094-7.7812-17.391-17.391-17.391h-96.844c-9.6094 0-17.391 7.7812-17.391 17.391zm228 382.22c-4.6875 8.2969-1.9219 18.844 6.375 23.625 8.2969 4.9219 18.938 2.0625 23.859-6.2344l48.375-83.859c4.7812-8.2969 1.9219-18.938-6.375-23.766-8.2969-4.7812-18.938-1.9219-23.766 6.375l-48.375 83.859zm223.45-27.609v168c0 9.6094 7.7812 17.391 17.391 17.391s17.391-7.7812 17.391-17.391v-168c0-9.6094-7.7812-17.391-17.391-17.391s-17.391 7.7812-17.391 17.391z"/>
</svg>
