<?xml version="1.0" encoding="UTF-8"?>
<svg width="1200pt" height="1200pt" version="1.1" viewBox="0 0 1200 1200" xmlns="http://www.w3.org/2000/svg">
 <path d="m600 289.18c49.078-1.3594 97.266 13.359 137.16 41.953 24.516-15.609 52.688-24.516 81.703-25.922-41.016-17.578-80.859-37.922-119.2-60.797-25.969-17.812-41.344-47.438-41.062-78.938v-28.922c0-88.359-44.156-128.06-100.97-135.71-53.906-7.2188-141.56 31.594-147.52 95.766-4.9219 37.172 4.5469 74.859 26.438 105.33 26.578-4.5938 52.125-13.969 75.328-27.75-14.484-24.469-4.5-38.578 7.0781-41.203h-0.046875c6.0469-1.2188 12.328 0.51562 16.875 4.6406s6.8438 10.219 6.1875 16.312h0.09375v11.578c0.32812 31.5-15.094 61.125-41.062 78.938-38.344 22.875-78.188 43.219-119.25 60.844 28.781 1.4531 56.719 10.359 81.047 25.828 39.938-28.594 88.125-43.312 137.21-41.953z"/>
 <path d="m840.94 341.02c-26.062-1.5-51.984 3.9844-75.234 15.797 15.469 17.109 27.141 37.219 34.312 59.156l-35.016 10.078v-0.046875c-6.1406-18.281-16.359-34.969-29.906-48.703-15.234-15.328-33.234-27.562-53.109-36.047-25.969-10.781-53.859-16.078-81.984-15.609-24.75-0.28125-49.312 3.8438-72.609 12.141-23.484 8.3906-44.812 21.891-62.484 39.516-13.547 13.734-23.719 30.422-29.812 48.703l-35.016-10.078v0.046875c7.125-21.891 18.797-42.047 34.219-59.156-23.203-11.812-49.172-17.297-75.188-15.797-74.859 0-312.28 94.781-312.28 411.98 0 315.24 229.22 426.84 330.14 366.28 56.203 63.469 140.34 80.719 223.03 80.719 82.691 0 166.82-17.25 223.03-80.719 100.92 60.562 330.14-51.047 330.14-366.28 0-317.21-237.32-411.98-312.24-411.98zm23.578 138.52c61.875 44.391 113.44 101.72 151.03 168-59.203 64.031-182.48 105.89-294.89 101.53 42.328-41.156 117.23-174.1 143.86-269.53zm-264.52 274.26c20.344 35.109 45.375 67.266 74.438 95.578-47.531 20.297-101.34 20.297-148.87 0 29.062-28.312 54.094-60.469 74.438-95.578zm-264.52-274.26c26.531 95.484 101.53 228.42 143.81 269.48-112.36 4.4062-235.64-37.453-294.89-101.53 37.641-66.281 89.156-123.56 151.08-167.95zm437.26 577.31-13.5-50.719-67.547 17.953 13.359 50.25c-69.469 12.562-140.63 12.562-210.1 0l13.359-50.25-67.547-17.953-13.5 50.719c-159.61-53.719-236.44-174.71-245.95-238.55 38.156 32.812 93.375 57.516 152.81 75.609l-16.781 60.094 67.312 18.75 17.062-61.359v-0.046875c53.766 11.719 108.42 19.125 163.36 22.219v58.219h69.891l-0.046875-58.219c54.938-3.0938 109.55-10.547 163.26-22.219l17.016 61.312 67.312-18.75-16.688-60.094c59.438-18.047 114.61-42.797 152.81-75.609-9.5156 63.891-86.297 184.87-245.9 238.64z"/>
</svg>
