<?xml version="1.0" encoding="UTF-8"?>
<svg width="1200pt" height="1200pt" version="1.1" viewBox="0 0 1200 1200" xmlns="http://www.w3.org/2000/svg">
 <path d="m665.95 747.47c-37.266 25.219-74.766 50.719-108.47 80.25-25.594 22.406-48.75 49.219-67.078 77.859-52.641 82.359-45.047 140.72 25.453 234.42-214.13-28.266-377.76-315.84-262.5-469.74 3.2344 77.297 30.562 135.14 113.77 158.81-8.0156-24.984-15.703-45.328-21.047-66.234-20.859-82.125-8.1562-160.36 29.391-235.26 11.297-22.5 22.172-45.328 35.25-66.75 41.484-67.688 61.922-139.31 39.141-222.47 77.25 52.359 84.094 118.27 34.453 305.16 93.281-44.625 135.24-120.05 150.84-212.72 15.328-91.125-4.5-177.94-49.172-270.74 98.625 68.25 156.19 153 187.45 253.13 17.906 57.328 26.766 119.3 28.406 179.44 3 108.42-45.469 193.64-135.89 254.9zm312.05-76.219c-11.859-86.062-44.906-164.48-94.734-236.34 20.766 162.71-32.016 292.13-165.74 387.79-17.906 12.797-33.375 30.375-46.641 48.188-26.484 35.625-23.906 70.641 11.062 116.67 25.312-28.453 49.312-55.453 74.625-83.906 32.438 84.797 13.969 159.71-44.344 232.64 81.844-17.953 142.26-58.641 189.32-118.27 81.141-102.8 93.656-222.24 76.453-346.82z"/>
</svg>
